  0
SECTION
  2
BLOCKS
  0
ENDSEC
  0
SECTION
  2
ENTITIES
  0
LINE
  8
0
 10
-60
 11
-60
 20
-56
 21
0
  0
LINE
  8
0
 10
-60
 11
-56
 20
0
 21
0
  0
LINE
  8
0
 10
-56
 11
-56
 20
0
 21
60
  0
LINE
  8
0
 10
-56
 11
0
 20
60
 21
60
  0
LINE
  8
0
 10
0
 11
0
 20
60
 21
56
  0
LINE
  8
0
 10
0
 11
60
 20
56
 21
56
  0
LINE
  8
0
 10
60
 11
60
 20
56
 21
0
  0
LINE
  8
0
 10
60
 11
56
 20
0
 21
0
  0
LINE
  8
0
 10
56
 11
56
 20
0
 21
-60
  0
LINE
  8
0
 10
56
 11
0
 20
-60
 21
-60
  0
LINE
  8
0
 10
0
 11
0
 20
-60
 21
-56
  0
LINE
  8
0
 10
0
 11
-60
 20
-56
 21
-56
  0
LINE
  8
0
 10
-60
 11
-60
 20
74
 21
130
  0
LINE
  8
0
 10
-60
 11
-56
 20
130
 21
130
  0
LINE
  8
0
 10
-56
 11
-56
 20
130
 21
190
  0
LINE
  8
0
 10
-56
 11
0
 20
190
 21
190
  0
LINE
  8
0
 10
0
 11
0
 20
190
 21
186
  0
LINE
  8
0
 10
0
 11
60
 20
186
 21
186
  0
LINE
  8
0
 10
60
 11
60
 20
186
 21
130
  0
LINE
  8
0
 10
60
 11
56
 20
130
 21
130
  0
LINE
  8
0
 10
56
 11
56
 20
130
 21
70
  0
LINE
  8
0
 10
56
 11
0
 20
70
 21
70
  0
LINE
  8
0
 10
0
 11
0
 20
70
 21
74
  0
LINE
  8
0
 10
0
 11
-60
 20
74
 21
74
  0
LINE
  8
0
 10
-33.48
 11
-32.907
 20
-40.64
 21
-38.877
  0
LINE
  8
0
 10
-32.907
 11
-31.407
 20
-38.877
 21
-37.787
  0
LINE
  8
0
 10
-31.407
 11
-29.553
 20
-37.787
 21
-37.787
  0
LINE
  8
0
 10
-29.553
 11
-28.053
 20
-37.787
 21
-38.877
  0
LINE
  8
0
 10
-28.053
 11
-27.48
 20
-38.877
 21
-40.64
  0
LINE
  8
0
 10
-27.48
 11
-28.053
 20
-40.64
 21
-42.403
  0
LINE
  8
0
 10
-28.053
 11
-29.553
 20
-42.403
 21
-43.493
  0
LINE
  8
0
 10
-29.553
 11
-31.407
 20
-43.493
 21
-43.493
  0
LINE
  8
0
 10
-31.407
 11
-32.907
 20
-43.493
 21
-42.403
  0
LINE
  8
0
 10
-32.907
 11
-33.48
 20
-42.403
 21
-40.64
  0
LINE
  8
0
 10
-33.48
 11
-32.907
 20
0
 21
1.763
  0
LINE
  8
0
 10
-32.907
 11
-31.407
 20
1.763
 21
2.853
  0
LINE
  8
0
 10
-31.407
 11
-29.553
 20
2.853
 21
2.853
  0
LINE
  8
0
 10
-29.553
 11
-28.053
 20
2.853
 21
1.763
  0
LINE
  8
0
 10
-28.053
 11
-27.48
 20
1.763
 21
0
  0
LINE
  8
0
 10
-27.48
 11
-28.053
 20
0
 21
-1.763
  0
LINE
  8
0
 10
-28.053
 11
-29.553
 20
-1.763
 21
-2.853
  0
LINE
  8
0
 10
-29.553
 11
-31.407
 20
-2.853
 21
-2.853
  0
LINE
  8
0
 10
-31.407
 11
-32.907
 20
-2.853
 21
-1.763
  0
LINE
  8
0
 10
-32.907
 11
-33.48
 20
-1.763
 21
0
  0
LINE
  8
0
 10
-33.48
 11
-32.907
 20
40.64
 21
42.403
  0
LINE
  8
0
 10
-32.907
 11
-31.407
 20
42.403
 21
43.493
  0
LINE
  8
0
 10
-31.407
 11
-29.553
 20
43.493
 21
43.493
  0
LINE
  8
0
 10
-29.553
 11
-28.053
 20
43.493
 21
42.403
  0
LINE
  8
0
 10
-28.053
 11
-27.48
 20
42.403
 21
40.64
  0
LINE
  8
0
 10
-27.48
 11
-28.053
 20
40.64
 21
38.877
  0
LINE
  8
0
 10
-28.053
 11
-29.553
 20
38.877
 21
37.787
  0
LINE
  8
0
 10
-29.553
 11
-31.407
 20
37.787
 21
37.787
  0
LINE
  8
0
 10
-31.407
 11
-32.907
 20
37.787
 21
38.877
  0
LINE
  8
0
 10
-32.907
 11
-33.48
 20
38.877
 21
40.64
  0
LINE
  8
0
 10
-33.48
 11
-32.907
 20
89.36
 21
91.123
  0
LINE
  8
0
 10
-32.907
 11
-31.407
 20
91.123
 21
92.213
  0
LINE
  8
0
 10
-31.407
 11
-29.553
 20
92.213
 21
92.213
  0
LINE
  8
0
 10
-29.553
 11
-28.053
 20
92.213
 21
91.123
  0
LINE
  8
0
 10
-28.053
 11
-27.48
 20
91.123
 21
89.36
  0
LINE
  8
0
 10
-27.48
 11
-28.053
 20
89.36
 21
87.597
  0
LINE
  8
0
 10
-28.053
 11
-29.553
 20
87.597
 21
86.507
  0
LINE
  8
0
 10
-29.553
 11
-31.407
 20
86.507
 21
86.507
  0
LINE
  8
0
 10
-31.407
 11
-32.907
 20
86.507
 21
87.597
  0
LINE
  8
0
 10
-32.907
 11
-33.48
 20
87.597
 21
89.36
  0
LINE
  8
0
 10
-33.48
 11
-32.907
 20
130
 21
131.763
  0
LINE
  8
0
 10
-32.907
 11
-31.407
 20
131.763
 21
132.853
  0
LINE
  8
0
 10
-31.407
 11
-29.553
 20
132.853
 21
132.853
  0
LINE
  8
0
 10
-29.553
 11
-28.053
 20
132.853
 21
131.763
  0
LINE
  8
0
 10
-28.053
 11
-27.48
 20
131.763
 21
130
  0
LINE
  8
0
 10
-27.48
 11
-28.053
 20
130
 21
128.237
  0
LINE
  8
0
 10
-28.053
 11
-29.553
 20
128.237
 21
127.147
  0
LINE
  8
0
 10
-29.553
 11
-31.407
 20
127.147
 21
127.147
  0
LINE
  8
0
 10
-31.407
 11
-32.907
 20
127.147
 21
128.237
  0
LINE
  8
0
 10
-32.907
 11
-33.48
 20
128.237
 21
130
  0
LINE
  8
0
 10
-33.48
 11
-32.907
 20
170.64
 21
172.403
  0
LINE
  8
0
 10
-32.907
 11
-31.407
 20
172.403
 21
173.493
  0
LINE
  8
0
 10
-31.407
 11
-29.553
 20
173.493
 21
173.493
  0
LINE
  8
0
 10
-29.553
 11
-28.053
 20
173.493
 21
172.403
  0
LINE
  8
0
 10
-28.053
 11
-27.48
 20
172.403
 21
170.64
  0
LINE
  8
0
 10
-27.48
 11
-28.053
 20
170.64
 21
168.877
  0
LINE
  8
0
 10
-28.053
 11
-29.553
 20
168.877
 21
167.787
  0
LINE
  8
0
 10
-29.553
 11
-31.407
 20
167.787
 21
167.787
  0
LINE
  8
0
 10
-31.407
 11
-32.907
 20
167.787
 21
168.877
  0
LINE
  8
0
 10
-32.907
 11
-33.48
 20
168.877
 21
170.64
  0
LINE
  8
0
 10
-3
 11
-2.427
 20
0
 21
1.763
  0
LINE
  8
0
 10
-2.427
 11
-0.927
 20
1.763
 21
2.853
  0
LINE
  8
0
 10
-0.927
 11
0.927
 20
2.853
 21
2.853
  0
LINE
  8
0
 10
0.927
 11
2.427
 20
2.853
 21
1.763
  0
LINE
  8
0
 10
2.427
 11
3
 20
1.763
 21
0
  0
LINE
  8
0
 10
3
 11
2.427
 20
0
 21
-1.763
  0
LINE
  8
0
 10
2.427
 11
0.927
 20
-1.763
 21
-2.853
  0
LINE
  8
0
 10
0.927
 11
-0.927
 20
-2.853
 21
-2.853
  0
LINE
  8
0
 10
-0.927
 11
-2.427
 20
-2.853
 21
-1.763
  0
LINE
  8
0
 10
-2.427
 11
-3
 20
-1.763
 21
0
  0
LINE
  8
0
 10
-3
 11
-2.427
 20
130
 21
131.763
  0
LINE
  8
0
 10
-2.427
 11
-0.927
 20
131.763
 21
132.853
  0
LINE
  8
0
 10
-0.927
 11
0.927
 20
132.853
 21
132.853
  0
LINE
  8
0
 10
0.927
 11
2.427
 20
132.853
 21
131.763
  0
LINE
  8
0
 10
2.427
 11
3
 20
131.763
 21
130
  0
LINE
  8
0
 10
3
 11
2.427
 20
130
 21
128.237
  0
LINE
  8
0
 10
2.427
 11
0.927
 20
128.237
 21
127.147
  0
LINE
  8
0
 10
0.927
 11
-0.927
 20
127.147
 21
127.147
  0
LINE
  8
0
 10
-0.927
 11
-2.427
 20
127.147
 21
128.237
  0
LINE
  8
0
 10
-2.427
 11
-3
 20
128.237
 21
130
  0
LINE
  8
0
 10
27.48
 11
28.053
 20
-40.64
 21
-38.877
  0
LINE
  8
0
 10
28.053
 11
29.553
 20
-38.877
 21
-37.787
  0
LINE
  8
0
 10
29.553
 11
31.407
 20
-37.787
 21
-37.787
  0
LINE
  8
0
 10
31.407
 11
32.907
 20
-37.787
 21
-38.877
  0
LINE
  8
0
 10
32.907
 11
33.48
 20
-38.877
 21
-40.64
  0
LINE
  8
0
 10
33.48
 11
32.907
 20
-40.64
 21
-42.403
  0
LINE
  8
0
 10
32.907
 11
31.407
 20
-42.403
 21
-43.493
  0
LINE
  8
0
 10
31.407
 11
29.553
 20
-43.493
 21
-43.493
  0
LINE
  8
0
 10
29.553
 11
28.053
 20
-43.493
 21
-42.403
  0
LINE
  8
0
 10
28.053
 11
27.48
 20
-42.403
 21
-40.64
  0
LINE
  8
0
 10
27.48
 11
28.053
 20
0
 21
1.763
  0
LINE
  8
0
 10
28.053
 11
29.553
 20
1.763
 21
2.853
  0
LINE
  8
0
 10
29.553
 11
31.407
 20
2.853
 21
2.853
  0
LINE
  8
0
 10
31.407
 11
32.907
 20
2.853
 21
1.763
  0
LINE
  8
0
 10
32.907
 11
33.48
 20
1.763
 21
0
  0
LINE
  8
0
 10
33.48
 11
32.907
 20
0
 21
-1.763
  0
LINE
  8
0
 10
32.907
 11
31.407
 20
-1.763
 21
-2.853
  0
LINE
  8
0
 10
31.407
 11
29.553
 20
-2.853
 21
-2.853
  0
LINE
  8
0
 10
29.553
 11
28.053
 20
-2.853
 21
-1.763
  0
LINE
  8
0
 10
28.053
 11
27.48
 20
-1.763
 21
0
  0
LINE
  8
0
 10
27.48
 11
28.053
 20
40.64
 21
42.403
  0
LINE
  8
0
 10
28.053
 11
29.553
 20
42.403
 21
43.493
  0
LINE
  8
0
 10
29.553
 11
31.407
 20
43.493
 21
43.493
  0
LINE
  8
0
 10
31.407
 11
32.907
 20
43.493
 21
42.403
  0
LINE
  8
0
 10
32.907
 11
33.48
 20
42.403
 21
40.64
  0
LINE
  8
0
 10
33.48
 11
32.907
 20
40.64
 21
38.877
  0
LINE
  8
0
 10
32.907
 11
31.407
 20
38.877
 21
37.787
  0
LINE
  8
0
 10
31.407
 11
29.553
 20
37.787
 21
37.787
  0
LINE
  8
0
 10
29.553
 11
28.053
 20
37.787
 21
38.877
  0
LINE
  8
0
 10
28.053
 11
27.48
 20
38.877
 21
40.64
  0
LINE
  8
0
 10
27.48
 11
28.053
 20
89.36
 21
91.123
  0
LINE
  8
0
 10
28.053
 11
29.553
 20
91.123
 21
92.213
  0
LINE
  8
0
 10
29.553
 11
31.407
 20
92.213
 21
92.213
  0
LINE
  8
0
 10
31.407
 11
32.907
 20
92.213
 21
91.123
  0
LINE
  8
0
 10
32.907
 11
33.48
 20
91.123
 21
89.36
  0
LINE
  8
0
 10
33.48
 11
32.907
 20
89.36
 21
87.597
  0
LINE
  8
0
 10
32.907
 11
31.407
 20
87.597
 21
86.507
  0
LINE
  8
0
 10
31.407
 11
29.553
 20
86.507
 21
86.507
  0
LINE
  8
0
 10
29.553
 11
28.053
 20
86.507
 21
87.597
  0
LINE
  8
0
 10
28.053
 11
27.48
 20
87.597
 21
89.36
  0
LINE
  8
0
 10
27.48
 11
28.053
 20
130
 21
131.763
  0
LINE
  8
0
 10
28.053
 11
29.553
 20
131.763
 21
132.853
  0
LINE
  8
0
 10
29.553
 11
31.407
 20
132.853
 21
132.853
  0
LINE
  8
0
 10
31.407
 11
32.907
 20
132.853
 21
131.763
  0
LINE
  8
0
 10
32.907
 11
33.48
 20
131.763
 21
130
  0
LINE
  8
0
 10
33.48
 11
32.907
 20
130
 21
128.237
  0
LINE
  8
0
 10
32.907
 11
31.407
 20
128.237
 21
127.147
  0
LINE
  8
0
 10
31.407
 11
29.553
 20
127.147
 21
127.147
  0
LINE
  8
0
 10
29.553
 11
28.053
 20
127.147
 21
128.237
  0
LINE
  8
0
 10
28.053
 11
27.48
 20
128.237
 21
130
  0
LINE
  8
0
 10
27.48
 11
28.053
 20
170.64
 21
172.403
  0
LINE
  8
0
 10
28.053
 11
29.553
 20
172.403
 21
173.493
  0
LINE
  8
0
 10
29.553
 11
31.407
 20
173.493
 21
173.493
  0
LINE
  8
0
 10
31.407
 11
32.907
 20
173.493
 21
172.403
  0
LINE
  8
0
 10
32.907
 11
33.48
 20
172.403
 21
170.64
  0
LINE
  8
0
 10
33.48
 11
32.907
 20
170.64
 21
168.877
  0
LINE
  8
0
 10
32.907
 11
31.407
 20
168.877
 21
167.787
  0
LINE
  8
0
 10
31.407
 11
29.553
 20
167.787
 21
167.787
  0
LINE
  8
0
 10
29.553
 11
28.053
 20
167.787
 21
168.877
  0
LINE
  8
0
 10
28.053
 11
27.48
 20
168.877
 21
170.64
  0
LINE
  8
0
 10
70
 11
70
 20
-56
 21
0
  0
LINE
  8
0
 10
70
 11
74
 20
0
 21
0
  0
LINE
  8
0
 10
74
 11
74
 20
0
 21
60
  0
LINE
  8
0
 10
74
 11
130
 20
60
 21
60
  0
LINE
  8
0
 10
130
 11
130
 20
60
 21
56
  0
LINE
  8
0
 10
130
 11
190
 20
56
 21
56
  0
LINE
  8
0
 10
190
 11
190
 20
56
 21
0
  0
LINE
  8
0
 10
190
 11
186
 20
0
 21
0
  0
LINE
  8
0
 10
186
 11
186
 20
0
 21
-60
  0
LINE
  8
0
 10
186
 11
130
 20
-60
 21
-60
  0
LINE
  8
0
 10
130
 11
130
 20
-60
 21
-56
  0
LINE
  8
0
 10
130
 11
70
 20
-56
 21
-56
  0
LINE
  8
0
 10
70
 11
70
 20
130
 21
186
  0
LINE
  8
0
 10
70
 11
130
 20
186
 21
186
  0
LINE
  8
0
 10
130
 11
130
 20
186
 21
190
  0
LINE
  8
0
 10
130
 11
186
 20
190
 21
190
  0
LINE
  8
0
 10
186
 11
186
 20
190
 21
130
  0
LINE
  8
0
 10
186
 11
190
 20
130
 21
130
  0
LINE
  8
0
 10
190
 11
190
 20
130
 21
74
  0
LINE
  8
0
 10
190
 11
130
 20
74
 21
74
  0
LINE
  8
0
 10
130
 11
130
 20
74
 21
70
  0
LINE
  8
0
 10
130
 11
74
 20
70
 21
70
  0
LINE
  8
0
 10
74
 11
74
 20
70
 21
130
  0
LINE
  8
0
 10
74
 11
70
 20
130
 21
130
  0
LINE
  8
0
 10
96.52
 11
97.093
 20
-40.64
 21
-38.877
  0
LINE
  8
0
 10
97.093
 11
98.593
 20
-38.877
 21
-37.787
  0
LINE
  8
0
 10
98.593
 11
100.447
 20
-37.787
 21
-37.787
  0
LINE
  8
0
 10
100.447
 11
101.947
 20
-37.787
 21
-38.877
  0
LINE
  8
0
 10
101.947
 11
102.52
 20
-38.877
 21
-40.64
  0
LINE
  8
0
 10
102.52
 11
101.947
 20
-40.64
 21
-42.403
  0
LINE
  8
0
 10
101.947
 11
100.447
 20
-42.403
 21
-43.493
  0
LINE
  8
0
 10
100.447
 11
98.593
 20
-43.493
 21
-43.493
  0
LINE
  8
0
 10
98.593
 11
97.093
 20
-43.493
 21
-42.403
  0
LINE
  8
0
 10
97.093
 11
96.52
 20
-42.403
 21
-40.64
  0
LINE
  8
0
 10
96.52
 11
97.093
 20
0
 21
1.763
  0
LINE
  8
0
 10
97.093
 11
98.593
 20
1.763
 21
2.853
  0
LINE
  8
0
 10
98.593
 11
100.447
 20
2.853
 21
2.853
  0
LINE
  8
0
 10
100.447
 11
101.947
 20
2.853
 21
1.763
  0
LINE
  8
0
 10
101.947
 11
102.52
 20
1.763
 21
0
  0
LINE
  8
0
 10
102.52
 11
101.947
 20
0
 21
-1.763
  0
LINE
  8
0
 10
101.947
 11
100.447
 20
-1.763
 21
-2.853
  0
LINE
  8
0
 10
100.447
 11
98.593
 20
-2.853
 21
-2.853
  0
LINE
  8
0
 10
98.593
 11
97.093
 20
-2.853
 21
-1.763
  0
LINE
  8
0
 10
97.093
 11
96.52
 20
-1.763
 21
0
  0
LINE
  8
0
 10
96.52
 11
97.093
 20
40.64
 21
42.403
  0
LINE
  8
0
 10
97.093
 11
98.593
 20
42.403
 21
43.493
  0
LINE
  8
0
 10
98.593
 11
100.447
 20
43.493
 21
43.493
  0
LINE
  8
0
 10
100.447
 11
101.947
 20
43.493
 21
42.403
  0
LINE
  8
0
 10
101.947
 11
102.52
 20
42.403
 21
40.64
  0
LINE
  8
0
 10
102.52
 11
101.947
 20
40.64
 21
38.877
  0
LINE
  8
0
 10
101.947
 11
100.447
 20
38.877
 21
37.787
  0
LINE
  8
0
 10
100.447
 11
98.593
 20
37.787
 21
37.787
  0
LINE
  8
0
 10
98.593
 11
97.093
 20
37.787
 21
38.877
  0
LINE
  8
0
 10
97.093
 11
96.52
 20
38.877
 21
40.64
  0
LINE
  8
0
 10
96.52
 11
97.093
 20
89.36
 21
91.123
  0
LINE
  8
0
 10
97.093
 11
98.593
 20
91.123
 21
92.213
  0
LINE
  8
0
 10
98.593
 11
100.447
 20
92.213
 21
92.213
  0
LINE
  8
0
 10
100.447
 11
101.947
 20
92.213
 21
91.123
  0
LINE
  8
0
 10
101.947
 11
102.52
 20
91.123
 21
89.36
  0
LINE
  8
0
 10
102.52
 11
101.947
 20
89.36
 21
87.597
  0
LINE
  8
0
 10
101.947
 11
100.447
 20
87.597
 21
86.507
  0
LINE
  8
0
 10
100.447
 11
98.593
 20
86.507
 21
86.507
  0
LINE
  8
0
 10
98.593
 11
97.093
 20
86.507
 21
87.597
  0
LINE
  8
0
 10
97.093
 11
96.52
 20
87.597
 21
89.36
  0
LINE
  8
0
 10
96.52
 11
97.093
 20
130
 21
131.763
  0
LINE
  8
0
 10
97.093
 11
98.593
 20
131.763
 21
132.853
  0
LINE
  8
0
 10
98.593
 11
100.447
 20
132.853
 21
132.853
  0
LINE
  8
0
 10
100.447
 11
101.947
 20
132.853
 21
131.763
  0
LINE
  8
0
 10
101.947
 11
102.52
 20
131.763
 21
130
  0
LINE
  8
0
 10
102.52
 11
101.947
 20
130
 21
128.237
  0
LINE
  8
0
 10
101.947
 11
100.447
 20
128.237
 21
127.147
  0
LINE
  8
0
 10
100.447
 11
98.593
 20
127.147
 21
127.147
  0
LINE
  8
0
 10
98.593
 11
97.093
 20
127.147
 21
128.237
  0
LINE
  8
0
 10
97.093
 11
96.52
 20
128.237
 21
130
  0
LINE
  8
0
 10
96.52
 11
97.093
 20
170.64
 21
172.403
  0
LINE
  8
0
 10
97.093
 11
98.593
 20
172.403
 21
173.493
  0
LINE
  8
0
 10
98.593
 11
100.447
 20
173.493
 21
173.493
  0
LINE
  8
0
 10
100.447
 11
101.947
 20
173.493
 21
172.403
  0
LINE
  8
0
 10
101.947
 11
102.52
 20
172.403
 21
170.64
  0
LINE
  8
0
 10
102.52
 11
101.947
 20
170.64
 21
168.877
  0
LINE
  8
0
 10
101.947
 11
100.447
 20
168.877
 21
167.787
  0
LINE
  8
0
 10
100.447
 11
98.593
 20
167.787
 21
167.787
  0
LINE
  8
0
 10
98.593
 11
97.093
 20
167.787
 21
168.877
  0
LINE
  8
0
 10
97.093
 11
96.52
 20
168.877
 21
170.64
  0
LINE
  8
0
 10
127
 11
127.573
 20
0
 21
1.763
  0
LINE
  8
0
 10
127.573
 11
129.073
 20
1.763
 21
2.853
  0
LINE
  8
0
 10
129.073
 11
130.927
 20
2.853
 21
2.853
  0
LINE
  8
0
 10
130.927
 11
132.427
 20
2.853
 21
1.763
  0
LINE
  8
0
 10
132.427
 11
133
 20
1.763
 21
0
  0
LINE
  8
0
 10
133
 11
132.427
 20
0
 21
-1.763
  0
LINE
  8
0
 10
132.427
 11
130.927
 20
-1.763
 21
-2.853
  0
LINE
  8
0
 10
130.927
 11
129.073
 20
-2.853
 21
-2.853
  0
LINE
  8
0
 10
129.073
 11
127.573
 20
-2.853
 21
-1.763
  0
LINE
  8
0
 10
127.573
 11
127
 20
-1.763
 21
0
  0
LINE
  8
0
 10
127
 11
127.573
 20
130
 21
131.763
  0
LINE
  8
0
 10
127.573
 11
129.073
 20
131.763
 21
132.853
  0
LINE
  8
0
 10
129.073
 11
130.927
 20
132.853
 21
132.853
  0
LINE
  8
0
 10
130.927
 11
132.427
 20
132.853
 21
131.763
  0
LINE
  8
0
 10
132.427
 11
133
 20
131.763
 21
130
  0
LINE
  8
0
 10
133
 11
132.427
 20
130
 21
128.237
  0
LINE
  8
0
 10
132.427
 11
130.927
 20
128.237
 21
127.147
  0
LINE
  8
0
 10
130.927
 11
129.073
 20
127.147
 21
127.147
  0
LINE
  8
0
 10
129.073
 11
127.573
 20
127.147
 21
128.237
  0
LINE
  8
0
 10
127.573
 11
127
 20
128.237
 21
130
  0
LINE
  8
0
 10
157.48
 11
158.053
 20
-40.64
 21
-38.877
  0
LINE
  8
0
 10
158.053
 11
159.553
 20
-38.877
 21
-37.787
  0
LINE
  8
0
 10
159.553
 11
161.407
 20
-37.787
 21
-37.787
  0
LINE
  8
0
 10
161.407
 11
162.907
 20
-37.787
 21
-38.877
  0
LINE
  8
0
 10
162.907
 11
163.48
 20
-38.877
 21
-40.64
  0
LINE
  8
0
 10
163.48
 11
162.907
 20
-40.64
 21
-42.403
  0
LINE
  8
0
 10
162.907
 11
161.407
 20
-42.403
 21
-43.493
  0
LINE
  8
0
 10
161.407
 11
159.553
 20
-43.493
 21
-43.493
  0
LINE
  8
0
 10
159.553
 11
158.053
 20
-43.493
 21
-42.403
  0
LINE
  8
0
 10
158.053
 11
157.48
 20
-42.403
 21
-40.64
  0
LINE
  8
0
 10
157.48
 11
158.053
 20
0
 21
1.763
  0
LINE
  8
0
 10
158.053
 11
159.553
 20
1.763
 21
2.853
  0
LINE
  8
0
 10
159.553
 11
161.407
 20
2.853
 21
2.853
  0
LINE
  8
0
 10
161.407
 11
162.907
 20
2.853
 21
1.763
  0
LINE
  8
0
 10
162.907
 11
163.48
 20
1.763
 21
0
  0
LINE
  8
0
 10
163.48
 11
162.907
 20
0
 21
-1.763
  0
LINE
  8
0
 10
162.907
 11
161.407
 20
-1.763
 21
-2.853
  0
LINE
  8
0
 10
161.407
 11
159.553
 20
-2.853
 21
-2.853
  0
LINE
  8
0
 10
159.553
 11
158.053
 20
-2.853
 21
-1.763
  0
LINE
  8
0
 10
158.053
 11
157.48
 20
-1.763
 21
0
  0
LINE
  8
0
 10
157.48
 11
158.053
 20
40.64
 21
42.403
  0
LINE
  8
0
 10
158.053
 11
159.553
 20
42.403
 21
43.493
  0
LINE
  8
0
 10
159.553
 11
161.407
 20
43.493
 21
43.493
  0
LINE
  8
0
 10
161.407
 11
162.907
 20
43.493
 21
42.403
  0
LINE
  8
0
 10
162.907
 11
163.48
 20
42.403
 21
40.64
  0
LINE
  8
0
 10
163.48
 11
162.907
 20
40.64
 21
38.877
  0
LINE
  8
0
 10
162.907
 11
161.407
 20
38.877
 21
37.787
  0
LINE
  8
0
 10
161.407
 11
159.553
 20
37.787
 21
37.787
  0
LINE
  8
0
 10
159.553
 11
158.053
 20
37.787
 21
38.877
  0
LINE
  8
0
 10
158.053
 11
157.48
 20
38.877
 21
40.64
  0
LINE
  8
0
 10
157.48
 11
158.053
 20
89.36
 21
91.123
  0
LINE
  8
0
 10
158.053
 11
159.553
 20
91.123
 21
92.213
  0
LINE
  8
0
 10
159.553
 11
161.407
 20
92.213
 21
92.213
  0
LINE
  8
0
 10
161.407
 11
162.907
 20
92.213
 21
91.123
  0
LINE
  8
0
 10
162.907
 11
163.48
 20
91.123
 21
89.36
  0
LINE
  8
0
 10
163.48
 11
162.907
 20
89.36
 21
87.597
  0
LINE
  8
0
 10
162.907
 11
161.407
 20
87.597
 21
86.507
  0
LINE
  8
0
 10
161.407
 11
159.553
 20
86.507
 21
86.507
  0
LINE
  8
0
 10
159.553
 11
158.053
 20
86.507
 21
87.597
  0
LINE
  8
0
 10
158.053
 11
157.48
 20
87.597
 21
89.36
  0
LINE
  8
0
 10
157.48
 11
158.053
 20
130
 21
131.763
  0
LINE
  8
0
 10
158.053
 11
159.553
 20
131.763
 21
132.853
  0
LINE
  8
0
 10
159.553
 11
161.407
 20
132.853
 21
132.853
  0
LINE
  8
0
 10
161.407
 11
162.907
 20
132.853
 21
131.763
  0
LINE
  8
0
 10
162.907
 11
163.48
 20
131.763
 21
130
  0
LINE
  8
0
 10
163.48
 11
162.907
 20
130
 21
128.237
  0
LINE
  8
0
 10
162.907
 11
161.407
 20
128.237
 21
127.147
  0
LINE
  8
0
 10
161.407
 11
159.553
 20
127.147
 21
127.147
  0
LINE
  8
0
 10
159.553
 11
158.053
 20
127.147
 21
128.237
  0
LINE
  8
0
 10
158.053
 11
157.48
 20
128.237
 21
130
  0
LINE
  8
0
 10
157.48
 11
158.053
 20
170.64
 21
172.403
  0
LINE
  8
0
 10
158.053
 11
159.553
 20
172.403
 21
173.493
  0
LINE
  8
0
 10
159.553
 11
161.407
 20
173.493
 21
173.493
  0
LINE
  8
0
 10
161.407
 11
162.907
 20
173.493
 21
172.403
  0
LINE
  8
0
 10
162.907
 11
163.48
 20
172.403
 21
170.64
  0
LINE
  8
0
 10
163.48
 11
162.907
 20
170.64
 21
168.877
  0
LINE
  8
0
 10
162.907
 11
161.407
 20
168.877
 21
167.787
  0
LINE
  8
0
 10
161.407
 11
159.553
 20
167.787
 21
167.787
  0
LINE
  8
0
 10
159.553
 11
158.053
 20
167.787
 21
168.877
  0
LINE
  8
0
 10
158.053
 11
157.48
 20
168.877
 21
170.64
  0
LINE
  8
0
 10
200
 11
200
 20
-56
 21
0
  0
LINE
  8
0
 10
200
 11
204
 20
0
 21
0
  0
LINE
  8
0
 10
204
 11
204
 20
0
 21
60
  0
LINE
  8
0
 10
204
 11
260
 20
60
 21
60
  0
LINE
  8
0
 10
260
 11
260
 20
60
 21
56
  0
LINE
  8
0
 10
260
 11
320
 20
56
 21
56
  0
LINE
  8
0
 10
320
 11
320
 20
56
 21
0
  0
LINE
  8
0
 10
320
 11
316
 20
0
 21
0
  0
LINE
  8
0
 10
316
 11
316
 20
0
 21
-60
  0
LINE
  8
0
 10
316
 11
260
 20
-60
 21
-60
  0
LINE
  8
0
 10
260
 11
260
 20
-60
 21
-56
  0
LINE
  8
0
 10
260
 11
200
 20
-56
 21
-56
  0
LINE
  8
0
 10
200
 11
200
 20
74
 21
130
  0
LINE
  8
0
 10
200
 11
204
 20
130
 21
130
  0
LINE
  8
0
 10
204
 11
204
 20
130
 21
190
  0
LINE
  8
0
 10
204
 11
260
 20
190
 21
190
  0
LINE
  8
0
 10
260
 11
260
 20
190
 21
186
  0
LINE
  8
0
 10
260
 11
320
 20
186
 21
186
  0
LINE
  8
0
 10
320
 11
320
 20
186
 21
130
  0
LINE
  8
0
 10
320
 11
316
 20
130
 21
130
  0
LINE
  8
0
 10
316
 11
316
 20
130
 21
70
  0
LINE
  8
0
 10
316
 11
260
 20
70
 21
70
  0
LINE
  8
0
 10
260
 11
260
 20
70
 21
74
  0
LINE
  8
0
 10
260
 11
200
 20
74
 21
74
  0
LINE
  8
0
 10
226.52
 11
227.093
 20
-40.64
 21
-38.877
  0
LINE
  8
0
 10
227.093
 11
228.593
 20
-38.877
 21
-37.787
  0
LINE
  8
0
 10
228.593
 11
230.447
 20
-37.787
 21
-37.787
  0
LINE
  8
0
 10
230.447
 11
231.947
 20
-37.787
 21
-38.877
  0
LINE
  8
0
 10
231.947
 11
232.52
 20
-38.877
 21
-40.64
  0
LINE
  8
0
 10
232.52
 11
231.947
 20
-40.64
 21
-42.403
  0
LINE
  8
0
 10
231.947
 11
230.447
 20
-42.403
 21
-43.493
  0
LINE
  8
0
 10
230.447
 11
228.593
 20
-43.493
 21
-43.493
  0
LINE
  8
0
 10
228.593
 11
227.093
 20
-43.493
 21
-42.403
  0
LINE
  8
0
 10
227.093
 11
226.52
 20
-42.403
 21
-40.64
  0
LINE
  8
0
 10
226.52
 11
227.093
 20
0
 21
1.763
  0
LINE
  8
0
 10
227.093
 11
228.593
 20
1.763
 21
2.853
  0
LINE
  8
0
 10
228.593
 11
230.447
 20
2.853
 21
2.853
  0
LINE
  8
0
 10
230.447
 11
231.947
 20
2.853
 21
1.763
  0
LINE
  8
0
 10
231.947
 11
232.52
 20
1.763
 21
0
  0
LINE
  8
0
 10
232.52
 11
231.947
 20
0
 21
-1.763
  0
LINE
  8
0
 10
231.947
 11
230.447
 20
-1.763
 21
-2.853
  0
LINE
  8
0
 10
230.447
 11
228.593
 20
-2.853
 21
-2.853
  0
LINE
  8
0
 10
228.593
 11
227.093
 20
-2.853
 21
-1.763
  0
LINE
  8
0
 10
227.093
 11
226.52
 20
-1.763
 21
0
  0
LINE
  8
0
 10
226.52
 11
227.093
 20
40.64
 21
42.403
  0
LINE
  8
0
 10
227.093
 11
228.593
 20
42.403
 21
43.493
  0
LINE
  8
0
 10
228.593
 11
230.447
 20
43.493
 21
43.493
  0
LINE
  8
0
 10
230.447
 11
231.947
 20
43.493
 21
42.403
  0
LINE
  8
0
 10
231.947
 11
232.52
 20
42.403
 21
40.64
  0
LINE
  8
0
 10
232.52
 11
231.947
 20
40.64
 21
38.877
  0
LINE
  8
0
 10
231.947
 11
230.447
 20
38.877
 21
37.787
  0
LINE
  8
0
 10
230.447
 11
228.593
 20
37.787
 21
37.787
  0
LINE
  8
0
 10
228.593
 11
227.093
 20
37.787
 21
38.877
  0
LINE
  8
0
 10
227.093
 11
226.52
 20
38.877
 21
40.64
  0
LINE
  8
0
 10
226.52
 11
227.093
 20
89.36
 21
91.123
  0
LINE
  8
0
 10
227.093
 11
228.593
 20
91.123
 21
92.213
  0
LINE
  8
0
 10
228.593
 11
230.447
 20
92.213
 21
92.213
  0
LINE
  8
0
 10
230.447
 11
231.947
 20
92.213
 21
91.123
  0
LINE
  8
0
 10
231.947
 11
232.52
 20
91.123
 21
89.36
  0
LINE
  8
0
 10
232.52
 11
231.947
 20
89.36
 21
87.597
  0
LINE
  8
0
 10
231.947
 11
230.447
 20
87.597
 21
86.507
  0
LINE
  8
0
 10
230.447
 11
228.593
 20
86.507
 21
86.507
  0
LINE
  8
0
 10
228.593
 11
227.093
 20
86.507
 21
87.597
  0
LINE
  8
0
 10
227.093
 11
226.52
 20
87.597
 21
89.36
  0
LINE
  8
0
 10
226.52
 11
227.093
 20
130
 21
131.763
  0
LINE
  8
0
 10
227.093
 11
228.593
 20
131.763
 21
132.853
  0
LINE
  8
0
 10
228.593
 11
230.447
 20
132.853
 21
132.853
  0
LINE
  8
0
 10
230.447
 11
231.947
 20
132.853
 21
131.763
  0
LINE
  8
0
 10
231.947
 11
232.52
 20
131.763
 21
130
  0
LINE
  8
0
 10
232.52
 11
231.947
 20
130
 21
128.237
  0
LINE
  8
0
 10
231.947
 11
230.447
 20
128.237
 21
127.147
  0
LINE
  8
0
 10
230.447
 11
228.593
 20
127.147
 21
127.147
  0
LINE
  8
0
 10
228.593
 11
227.093
 20
127.147
 21
128.237
  0
LINE
  8
0
 10
227.093
 11
226.52
 20
128.237
 21
130
  0
LINE
  8
0
 10
226.52
 11
227.093
 20
170.64
 21
172.403
  0
LINE
  8
0
 10
227.093
 11
228.593
 20
172.403
 21
173.493
  0
LINE
  8
0
 10
228.593
 11
230.447
 20
173.493
 21
173.493
  0
LINE
  8
0
 10
230.447
 11
231.947
 20
173.493
 21
172.403
  0
LINE
  8
0
 10
231.947
 11
232.52
 20
172.403
 21
170.64
  0
LINE
  8
0
 10
232.52
 11
231.947
 20
170.64
 21
168.877
  0
LINE
  8
0
 10
231.947
 11
230.447
 20
168.877
 21
167.787
  0
LINE
  8
0
 10
230.447
 11
228.593
 20
167.787
 21
167.787
  0
LINE
  8
0
 10
228.593
 11
227.093
 20
167.787
 21
168.877
  0
LINE
  8
0
 10
227.093
 11
226.52
 20
168.877
 21
170.64
  0
LINE
  8
0
 10
257
 11
257.573
 20
0
 21
1.763
  0
LINE
  8
0
 10
257.573
 11
259.073
 20
1.763
 21
2.853
  0
LINE
  8
0
 10
259.073
 11
260.927
 20
2.853
 21
2.853
  0
LINE
  8
0
 10
260.927
 11
262.427
 20
2.853
 21
1.763
  0
LINE
  8
0
 10
262.427
 11
263
 20
1.763
 21
0
  0
LINE
  8
0
 10
263
 11
262.427
 20
0
 21
-1.763
  0
LINE
  8
0
 10
262.427
 11
260.927
 20
-1.763
 21
-2.853
  0
LINE
  8
0
 10
260.927
 11
259.073
 20
-2.853
 21
-2.853
  0
LINE
  8
0
 10
259.073
 11
257.573
 20
-2.853
 21
-1.763
  0
LINE
  8
0
 10
257.573
 11
257
 20
-1.763
 21
0
  0
LINE
  8
0
 10
257
 11
257.573
 20
130
 21
131.763
  0
LINE
  8
0
 10
257.573
 11
259.073
 20
131.763
 21
132.853
  0
LINE
  8
0
 10
259.073
 11
260.927
 20
132.853
 21
132.853
  0
LINE
  8
0
 10
260.927
 11
262.427
 20
132.853
 21
131.763
  0
LINE
  8
0
 10
262.427
 11
263
 20
131.763
 21
130
  0
LINE
  8
0
 10
263
 11
262.427
 20
130
 21
128.237
  0
LINE
  8
0
 10
262.427
 11
260.927
 20
128.237
 21
127.147
  0
LINE
  8
0
 10
260.927
 11
259.073
 20
127.147
 21
127.147
  0
LINE
  8
0
 10
259.073
 11
257.573
 20
127.147
 21
128.237
  0
LINE
  8
0
 10
257.573
 11
257
 20
128.237
 21
130
  0
LINE
  8
0
 10
287.48
 11
288.053
 20
-40.64
 21
-38.877
  0
LINE
  8
0
 10
288.053
 11
289.553
 20
-38.877
 21
-37.787
  0
LINE
  8
0
 10
289.553
 11
291.407
 20
-37.787
 21
-37.787
  0
LINE
  8
0
 10
291.407
 11
292.907
 20
-37.787
 21
-38.877
  0
LINE
  8
0
 10
292.907
 11
293.48
 20
-38.877
 21
-40.64
  0
LINE
  8
0
 10
293.48
 11
292.907
 20
-40.64
 21
-42.403
  0
LINE
  8
0
 10
292.907
 11
291.407
 20
-42.403
 21
-43.493
  0
LINE
  8
0
 10
291.407
 11
289.553
 20
-43.493
 21
-43.493
  0
LINE
  8
0
 10
289.553
 11
288.053
 20
-43.493
 21
-42.403
  0
LINE
  8
0
 10
288.053
 11
287.48
 20
-42.403
 21
-40.64
  0
LINE
  8
0
 10
287.48
 11
288.053
 20
0
 21
1.763
  0
LINE
  8
0
 10
288.053
 11
289.553
 20
1.763
 21
2.853
  0
LINE
  8
0
 10
289.553
 11
291.407
 20
2.853
 21
2.853
  0
LINE
  8
0
 10
291.407
 11
292.907
 20
2.853
 21
1.763
  0
LINE
  8
0
 10
292.907
 11
293.48
 20
1.763
 21
0
  0
LINE
  8
0
 10
293.48
 11
292.907
 20
0
 21
-1.763
  0
LINE
  8
0
 10
292.907
 11
291.407
 20
-1.763
 21
-2.853
  0
LINE
  8
0
 10
291.407
 11
289.553
 20
-2.853
 21
-2.853
  0
LINE
  8
0
 10
289.553
 11
288.053
 20
-2.853
 21
-1.763
  0
LINE
  8
0
 10
288.053
 11
287.48
 20
-1.763
 21
0
  0
LINE
  8
0
 10
287.48
 11
288.053
 20
40.64
 21
42.403
  0
LINE
  8
0
 10
288.053
 11
289.553
 20
42.403
 21
43.493
  0
LINE
  8
0
 10
289.553
 11
291.407
 20
43.493
 21
43.493
  0
LINE
  8
0
 10
291.407
 11
292.907
 20
43.493
 21
42.403
  0
LINE
  8
0
 10
292.907
 11
293.48
 20
42.403
 21
40.64
  0
LINE
  8
0
 10
293.48
 11
292.907
 20
40.64
 21
38.877
  0
LINE
  8
0
 10
292.907
 11
291.407
 20
38.877
 21
37.787
  0
LINE
  8
0
 10
291.407
 11
289.553
 20
37.787
 21
37.787
  0
LINE
  8
0
 10
289.553
 11
288.053
 20
37.787
 21
38.877
  0
LINE
  8
0
 10
288.053
 11
287.48
 20
38.877
 21
40.64
  0
LINE
  8
0
 10
287.48
 11
288.053
 20
89.36
 21
91.123
  0
LINE
  8
0
 10
288.053
 11
289.553
 20
91.123
 21
92.213
  0
LINE
  8
0
 10
289.553
 11
291.407
 20
92.213
 21
92.213
  0
LINE
  8
0
 10
291.407
 11
292.907
 20
92.213
 21
91.123
  0
LINE
  8
0
 10
292.907
 11
293.48
 20
91.123
 21
89.36
  0
LINE
  8
0
 10
293.48
 11
292.907
 20
89.36
 21
87.597
  0
LINE
  8
0
 10
292.907
 11
291.407
 20
87.597
 21
86.507
  0
LINE
  8
0
 10
291.407
 11
289.553
 20
86.507
 21
86.507
  0
LINE
  8
0
 10
289.553
 11
288.053
 20
86.507
 21
87.597
  0
LINE
  8
0
 10
288.053
 11
287.48
 20
87.597
 21
89.36
  0
LINE
  8
0
 10
287.48
 11
288.053
 20
130
 21
131.763
  0
LINE
  8
0
 10
288.053
 11
289.553
 20
131.763
 21
132.853
  0
LINE
  8
0
 10
289.553
 11
291.407
 20
132.853
 21
132.853
  0
LINE
  8
0
 10
291.407
 11
292.907
 20
132.853
 21
131.763
  0
LINE
  8
0
 10
292.907
 11
293.48
 20
131.763
 21
130
  0
LINE
  8
0
 10
293.48
 11
292.907
 20
130
 21
128.237
  0
LINE
  8
0
 10
292.907
 11
291.407
 20
128.237
 21
127.147
  0
LINE
  8
0
 10
291.407
 11
289.553
 20
127.147
 21
127.147
  0
LINE
  8
0
 10
289.553
 11
288.053
 20
127.147
 21
128.237
  0
LINE
  8
0
 10
288.053
 11
287.48
 20
128.237
 21
130
  0
LINE
  8
0
 10
287.48
 11
288.053
 20
170.64
 21
172.403
  0
LINE
  8
0
 10
288.053
 11
289.553
 20
172.403
 21
173.493
  0
LINE
  8
0
 10
289.553
 11
291.407
 20
173.493
 21
173.493
  0
LINE
  8
0
 10
291.407
 11
292.907
 20
173.493
 21
172.403
  0
LINE
  8
0
 10
292.907
 11
293.48
 20
172.403
 21
170.64
  0
LINE
  8
0
 10
293.48
 11
292.907
 20
170.64
 21
168.877
  0
LINE
  8
0
 10
292.907
 11
291.407
 20
168.877
 21
167.787
  0
LINE
  8
0
 10
291.407
 11
289.553
 20
167.787
 21
167.787
  0
LINE
  8
0
 10
289.553
 11
288.053
 20
167.787
 21
168.877
  0
LINE
  8
0
 10
288.053
 11
287.48
 20
168.877
 21
170.64
  0
ENDSEC
  0
SECTION
  2
OBJECTS
  0
DICTIONARY
  0
ENDSEC
  0
EOF
